<svg width="31" height="30" viewBox="0 0 31 30" fill="none" xmlns="http://www.w3.org/2000/svg">
<path fill-rule="evenodd" clip-rule="evenodd" d="M24.2996 1.10064e-07H17.3606C16.5758 -0.000150574 15.7987 0.154423 15.0738 0.454877C14.3488 0.755331 13.6902 1.19577 13.1356 1.751L0.713594 14.173C0.432388 14.4543 0.274414 14.8358 0.274414 15.2335C0.274414 15.6312 0.432388 16.0127 0.713594 16.294L13.9786 29.561C14.2598 29.8419 14.6411 29.9997 15.0386 29.9997C15.4361 29.9997 15.8173 29.8419 16.0986 29.561L28.5236 17.137C29.0786 16.5823 29.5188 15.9236 29.819 15.1986C30.1193 14.4737 30.2738 13.6967 30.2736 12.912V5.975C30.2736 2.675 27.5996 1.10064e-07 24.2996 1.10064e-07ZM17.3616 3H24.3006C24.6912 3 25.078 3.07696 25.4389 3.22648C25.7998 3.376 26.1277 3.59515 26.4039 3.87142C26.6801 4.14769 26.8991 4.47565 27.0485 4.83659C27.1979 5.19753 27.2747 5.58436 27.2746 5.975V12.912L27.2636 13.174C27.2021 13.8696 26.8977 14.5214 26.4036 15.015L15.0386 26.377L3.89459 15.232L15.2586 3.872C15.5346 3.59548 15.8624 3.37613 16.2232 3.2265C16.5841 3.07687 16.9709 2.9999 17.3616 3ZM23.7906 6.662C24.0054 6.86966 24.1767 7.11801 24.2945 7.39258C24.4123 7.66714 24.4742 7.96241 24.4766 8.26117C24.4791 8.55992 24.422 8.85617 24.3088 9.13264C24.1955 9.4091 24.0283 9.66023 23.817 9.87139C23.6056 10.0825 23.3543 10.2495 23.0777 10.3625C22.8012 10.4755 22.5049 10.5323 22.2061 10.5296C21.9074 10.5268 21.6121 10.4646 21.3377 10.3466C21.0632 10.2285 20.815 10.057 20.6076 9.842C20.1979 9.41745 19.9714 8.84899 19.9768 8.25905C19.9822 7.6691 20.2191 7.10489 20.6365 6.68791C21.0538 6.27094 21.6183 6.03457 22.2082 6.02973C22.7982 6.02488 23.3664 6.25194 23.7906 6.662ZM10.4506 18.696L11.4786 17.666L13.5156 19.703L14.6716 18.547L12.6346 16.511L13.3246 15.821L14.0446 16.543C14.5336 17.031 14.9966 17.409 15.4346 17.678C15.8736 17.946 16.2956 18.1 16.7026 18.138C17.1086 18.178 17.5086 18.108 17.9006 17.927C18.2936 17.747 18.6946 17.451 19.1046 17.041C19.5356 16.61 19.8486 16.194 20.0436 15.795C20.2376 15.395 20.3156 14.995 20.2766 14.596C20.2376 14.196 20.0876 13.785 19.8266 13.361C19.5646 12.936 19.1966 12.487 18.7226 12.014C18.4546 11.744 18.2126 11.506 17.9966 11.298C17.6009 10.9149 17.1975 10.5398 16.7866 10.173C16.5866 9.993 16.3686 9.793 16.1346 9.574L12.7836 12.926L12.1256 12.268L10.9486 13.445L11.6056 14.103L10.9156 14.793L10.2586 14.135L9.10259 15.291L9.76059 15.949L8.73059 16.977L10.4506 18.696ZM15.0526 15.216L14.4906 14.655L16.4426 12.703C16.5556 12.788 16.6706 12.885 16.7876 12.995C16.9036 13.105 17.0156 13.212 17.1216 13.318C17.5456 13.742 17.7546 14.107 17.7466 14.411C17.7396 14.715 17.5636 15.04 17.2166 15.387C16.8706 15.733 16.5266 15.896 16.1876 15.874C15.8476 15.854 15.4706 15.633 15.0526 15.216Z" fill="#027777"/>
</svg>
